{
	"asset":{
		"version":"2.0",
		"generator":"Houdini GLTF 2.0 Exporter"
	},
	"accessors":[
		{
			"bufferView":0,
			"componentType":5125,
			"count":77124,
			"type":"SCALAR",
			"min":[0
			],
			"max":[13940
			]
		},
		{
			"bufferView":1,
			"componentType":5126,
			"count":13941,
			"type":"VEC3",
			"min":[-1.01214898,-0.26760602,-0.972831011
			],
			"max":[1.01214898,1.38463593,0.847423017
			]
		},
		{
			"bufferView":2,
			"componentType":5126,
			"count":13941,
			"type":"VEC3",
			"min":[-0.999779284,-0.999999344,-0.999821544
			],
			"max":[0.999778748,0.999997258,0.999903202
			]
		},
		{
			"bufferView":3,
			"componentType":5126,
			"count":13941,
			"type":"VEC4",
			"min":[-0.998350441,-0.999952912,-0.999971211,1
			],
			"max":[0.980614305,0.999981046,0.99905467,1
			]
		},
		{
			"bufferView":4,
			"componentType":5126,
			"count":13941,
			"type":"VEC2",
			"min":[0.00999999978,0.00999999046
			],
			"max":[0.99000001,0.979417026
			]
		}
	],
	"buffers":[
		{
			"uri":"rubbertoy_data.bin",
			"byteLength":977664,
			"name":"main_buffer"
		}
	],
	"bufferViews":[
		{
			"buffer":0,
			"byteLength":308496,
			"target":34963
		},
		{
			"buffer":0,
			"byteOffset":308496,
			"byteLength":167292,
			"target":34962
		},
		{
			"buffer":0,
			"byteOffset":475788,
			"byteLength":167292,
			"target":34962
		},
		{
			"buffer":0,
			"byteOffset":643080,
			"byteLength":223056,
			"target":34962
		},
		{
			"buffer":0,
			"byteOffset":866136,
			"byteLength":111528,
			"target":34962
		}
	],
	"nodes":[
		{
			"name":"Tangent_Field",
			"mesh":0
		}
	],
	"meshes":[
		{
			"primitives":[
				{
					"attributes":{
						"TEXCOORD_0":4,
						"TANGENT":3,
						"POSITION":1,
						"NORMAL":2
					},
					"indices":0,
					"material":0
				}
			],
			"name":"testgeometry_rubbertoy1"
		}
	],
	"materials":[
		{
			"name":"ToyShader",
			"pbrMetallicRoughness":{
				"baseColorFactor":[0.588,0.588,0.588,1
				],
				"metallicFactor":0,
				"roughnessFactor":0.25,
				"baseColorTexture":{
					"index":0
				},
				"metallicRoughnessTexture":{
					"index":1
				}
			}
		}
	],
	"scenes":[
		{
			"nodes":[0
			]
		}
	],
	"textures":[
		{
			"source":0
		},
		{
			"source":1
		}
	],
	"images":[
		{
			"uri":"testgeometry_rubbertoy_toylowres.jpg",
			"mimeType":"image/jpeg"
		},
		{
			"uri":"testgeometry_rubbertoy_toyspeclowres.jpg",
			"mimeType":"image/jpeg"
		}
	],
	"scene":0
}
